<svg xmlns:svg="http://www.w3.org/2000/svg" xmlns="http://www.w3.org/2000/svg" version="1.1" height="744.1" width="1052.4">
<style>
.s0{
	fill:#ee8008;
}
.s1{
	fill:#fff;
}
.s2{
	-inkscape-font-specification:Arial;
	fill:#000;
	font-family:Arial;
	font-size:16;
	font-weight:bold;
	letter-spacing:-0.7;
	line-height:1000;
	text-align:start;
	text-anchor:start;
	word-spacing:0;
	writing-mode:lr-tb;
}
.s3{
	fill:#33c1ef;
}
.s4{
	-inkscape-font-specification:Arial;
	fill:#000;
	font-family:Arial;
	font-size:40;
	letter-spacing:0;
	line-height:125;
	word-spacing:0;
}
.s5{
	-inkscape-font-specification:Arial;
	font-family:Arial;
}
.s6{
	-inkscape-font-specification:Arial;
	fill:#fff;
	font-family:Arial;
	font-size:6;
}
.s7{
	-inkscape-font-specification:Arial;
	fill:#fff;
	font-family:Arial;
	font-size:16;
	letter-spacing:-0.7;
	line-height:1000;
	text-align:start;
	text-anchor:start;
	word-spacing:0;
	writing-mode:lr-tb;
}
.s8{
	-inkscape-font-specification:Arial Bold;
	fill:#fff;
	font-family:Arial;
	font-size:10;
	font-weight:900;
	letter-spacing:0.2;
	text-align:justify;
	text-anchor:start;
	word-spacing:-1;
}
.s9{
	-inkscape-font-specification:Arial Bold;
	fill:#fff;
	font-family:Arial;
	font-size:11;
	font-weight:900;
	letter-spacing:0.2;
	line-height:125;
	word-spacing:0;
}
.s10{
	-inkscape-font-specification:Arial Bold;
	fill:#fff;
	font-family:Arial;
	font-size:11;
	font-weight:900;
	letter-spacing:0.2;
}
.s11{
	-inkscape-font-specification:Arial Bold;
	fill:#fff;
	font-family:Arial;
	font-size:10;
	font-weight:900;
	letter-spacing:0.2;
	line-height:125;
	word-spacing:-1;
}
.s12{
	-inkscape-font-specification:Arial Bold;
	fill:#fff;
	font-family:Arial;
	font-size:10;
	font-weight:900;
	letter-spacing:0.2;
	word-spacing:-1;
}
.s13{
	-inkscape-font-specification:Arial Bold;
	fill:#fff;
	font-family:Arial;
	font-size:9;
	font-weight:900;
	letter-spacing:0.2;
}
.s14{
	-inkscape-font-specification:Arial Bold;
	fill:#000;
	font-family:Arial;
	font-size:40;
	font-weight:900;
	letter-spacing:0.2;
	line-height:125;
	word-spacing:0;
}
.s15{
	-inkscape-font-specification:Arial Bold;
	font-family:Arial;
	font-weight:900;
	letter-spacing:0.2;
}
.s16{
	-inkscape-font-specification:Arial Bold;
	fill:#fff;
	font-family:Arial;
	font-size:11;
	font-weight:900;
	letter-spacing:0.2;
	line-height:125;
	text-align:end;
	text-anchor:end;
	word-spacing:0;
}
.s17{
	-inkscape-font-specification:Arial Bold;
	fill:#fff;
	font-family:Arial;
	font-size:11;
	font-weight:900;
	letter-spacing:0.2;
	text-align:end;
	text-anchor:end;
}
.s18{
	-inkscape-font-specification:Arial Bold;
	fill:#000;
	font-family:Arial;
	font-size:10;
	font-weight:900;
	letter-spacing:0.2;
	line-height:125;
	word-spacing:-1;
}
.s19{
	-inkscape-font-specification:Arial Bold;
	font-family:Arial;
	font-size:10;
	font-weight:900;
	letter-spacing:0.2;
	word-spacing:-1;
}

</style>  <defs>
    <clipPath>
      <rect x="119.9" y="35.8" width="373.6" height="82.4"/>
    </clipPath>
    <clipPath>
      <rect x="119.9" y="35.8" width="373.6" height="82.4"/>
    </clipPath>
    <clipPath>
      <rect x="119.9" y="35.8" width="373.6" height="82.4"/>
    </clipPath>
    <clipPath>
      <rect x="119.9" y="35.8" width="373.6" height="82.4"/>
    </clipPath>
    <clipPath>
      <rect x="119.9" y="35.8" width="373.6" height="82.4"/>
    </clipPath>
    <clipPath>
      <rect x="119.9" y="35.8" width="373.6" height="82.4"/>
    </clipPath>
    <clipPath>
      <rect x="119.9" y="35.8" width="373.6" height="82.4"/>
    </clipPath>
    <clipPath>
      <rect x="119.9" y="35.8" width="373.6" height="82.4"/>
    </clipPath>
    <clipPath>
      <rect x="119.9" y="35.8" width="373.6" height="82.4"/>
    </clipPath>
    <clipPath>
      <rect x="119.9" y="35.8" width="373.6" height="82.4"/>
    </clipPath>
    <clipPath>
      <use overflow="visible" x="0" y="0" width="1" height="1"/>
    </clipPath>
    <clipPath>
      <use overflow="visible" x="0" y="0" width="1" height="1"/>
    </clipPath>
    <clipPath>
      <use overflow="visible" x="0" y="0" width="1" height="1"/>
    </clipPath>
    <clipPath>
      <use overflow="visible" x="0" y="0" width="1" height="1"/>
    </clipPath>
    <clipPath>
      <use overflow="visible" x="0" y="0" width="1" height="1"/>
    </clipPath>
    <clipPath>
      <use overflow="visible" x="0" y="0" width="1" height="1"/>
    </clipPath>
    <clipPath>
      <rect x="90.1" y="29.7" width="16" height="16.1"/>
    </clipPath>
    <clipPath>
      <rect x="440.8" y="31" width="16" height="13.6"/>
    </clipPath>
    <clipPath>
      <rect x="440.8" y="31" width="16" height="13.6"/>
    </clipPath>
    <clipPath>
      <use overflow="visible" x="0" y="0" width="1" height="1"/>
    </clipPath>
    <clipPath>
      <use overflow="visible" x="0" y="0" width="1" height="1"/>
    </clipPath>
    <clipPath>
      <use overflow="visible" x="0" y="0" width="1" height="1"/>
    </clipPath>
    <clipPath>
      <use overflow="visible" x="0" y="0" width="1" height="1"/>
    </clipPath>
    <clipPath>
      <use overflow="visible" x="0" y="0" width="1" height="1"/>
    </clipPath>
  </defs>
  <g transform="translate(0,-0.00448)">
    <rect y="-682.2" x="35" height="662.1" width="237.9" transform="scale(1,-1)" fill="#eb7e08"/>
    <rect width="300" height="326" x="283" y="20.1" fill="#83bb26"/>
    <rect width="300" height="325.7" x="283" y="356.3" fill="#00b1eb"/>
    <rect width="424" height="410" x="593" y="-430.1" transform="scale(1,-1)" fill="#a5aca5"/>
    <rect width="424" height="241.7" x="593" y="-682.1" transform="scale(1,-1)" fill="#575b5d"/>
    <g transform="matrix(0.30852934,0,0,0.30852934,-1.9948265,687.62412)">
      <defs>
        <rect height="82.4" width="373.6" y="35.8" x="119.9"/>
      </defs>
      <clipPath>
        <use overflow="visible" x="0" y="0" width="1" height="1"/>
      </clipPath>
      <path d="m190.6 57.4c-5.3 2-9.5 5.9-11.9 11-2.3 5-2.5 10.7-0.5 15.9l0 0.1c1.8 5.1 5.6 9.3 10.5 11.6 5 2.4 10.7 2.6 15.9 0.7 5.2-1.9 9.4-5.7 11.8-10.7 2.4-5.1 2.6-10.8 0.6-16.1-3.8-10.6-15.7-16.2-26.4-12.4M257.3 62.5 257.3 62.5h-4.6v12.5h4.6c2.4 0 7-1 7.1-6.6-0.1-3.8-3.2-5.9-7.1-5.8M304.8 62.9h-6.6v28.7h5c9.1-0.2 15.2-5.4 15.4-15-0.2-7.8-5.6-13.9-13.7-13.7M223 52.5l-6.1-16.7-45.9 16.7h-51.2v49.1h52.3l6.1 16.6 45.9-16.6H493.5V52.5H223zm-53.2 34.7c0 0 0 0 0 0 0 0 0 0 0 0l0-0.1zm54.5 2.5c-3.3 7.1-9.3 12.6-16.7 15.3-7.4 2.7-15.4 2.3-22.6-1-7.1-3.3-12.4-9.2-15-16.6 0 0 0 0 0 0l0-0.1c0 0 0 0 0 0-1.3-3.4-1.9-6.9-1.9-10.3 0-4.2 0.9-8.3 2.7-12.2 3.3-7.2 9.3-12.7 16.8-15.6 15.3-5.4 32.2 2.5 37.6 17.6 2.8 7.5 2.4 15.6-0.9 22.8m45 9.5-11.6-16.2c-0.7-1.1-1.6-1.5-2.9-1.7h-2.5V98.3h-7.9l0.4-42h13.3c10.2-0.1 14.4 5.4 14.6 12.1-0.2 5.3-3.4 9.2-8.3 10.8l12.9 17.1-7.9 2.9zm35.4-0.8h-14.6l0.4-42h13.7c13.3-0.2 22.1 8.1 22 20.8 0.1 12.6-10.6 21.1-21.6 21.2m45.4 0h-7.9l0.4-42h7.9l-0.4 42zm52.4-1.7-7.9 2.5-19.1-32.1h-0.4l0.8 31.2h-7.9l0.4-40.8 7.1-2.5 20 32.5-0.4-31.2h7.9l-0.4 40.4zm45.4 2.5-4.2-12.1H429.2l-5 12.1-7.1-2.5 16.2-40.4h7.1l15 40.4-7.5 2.5z" clip-path="url(#SVGID_2_-1-4)" fill="#ee8008"/>
      <polygon points="431.3 80.8 441.7 80.8 436.7 64.1 " clip-path="url(#SVGID_2_-1-4)" fill="#ee8008"/>
    </g>
    <path d="m834.9 718.8h1.8v-8.9h-1.8v8.9zm7.9 0.1c1.7 0 3-0.8 3.7-2l-1.4-1c-0.5 0.8-1.1 1.3-2.3 1.3-1.6 0-2.7-1.3-2.7-2.9 0-1.7 1.1-2.9 2.7-2.9 1 0 1.7 0.5 2.2 1.2l1.4-1c-0.8-1.2-2-1.8-3.6-1.8-2.6 0-4.6 1.9-4.6 4.6 0 2.6 2 4.6 4.6 4.6m7-0.1h1.8v-7.3h2.5v-1.6h-6.9v1.6h2.5v7.3zm5.5 0.1c0.6 0 1.1-0.5 1.1-1.1 0-0.6-0.5-1.1-1.1-1.1-0.6 0-1.1 0.5-1.1 1.1 0 0.7 0.5 1.1 1.1 1.1m5-0.1h1.7l0.2-3.2c0-0.6 0.1-1.6 0.1-1.6 0 0 0.5 0.9 0.9 1.4l1.6 2.2h0.2l1.6-2.2c0.4-0.5 0.8-1.4 0.8-1.4 0 0 0 1 0.1 1.6l0.2 3.2h1.8l-0.7-9h-0.2l-3.1 4.2c-0.3 0.4-0.6 1-0.6 1 0 0-0.4-0.6-0.6-1l-3.1-4.2h-0.2l-0.7 9zm10.3 0h1.8l0.4-1h3.6l0.4 1h1.9l-4.1-9h-0.2l-3.9 9zm2.8-2.5 0.6-1.6c0.3-0.6 0.5-1.6 0.5-1.6 0 0 0.3 1 0.5 1.6l0.6 1.6h-2.4zm6 2.5h1.8l0.4-1h3.6l0.4 1h1.9l-4.1-9h-0.2l-3.9 9zm2.8-2.5 0.6-1.6c0.3-0.6 0.5-1.6 0.5-1.6 0 0 0.3 1 0.5 1.6l0.6 1.6h-2.4zm11.1-0.2c1.1-0.5 1.7-1.4 1.7-2.8 0-2.2-1.5-3.4-4-3.4h-2.5v8.9h1.8v-2.2h0.6c0.2 0 0.4 0 0.5 0l1.5 2.3h2.1l-1.9-2.8zm-2.9-1v-3.5h0.6c1.5 0 2.2 0.5 2.2 1.8 0 1.3-0.7 1.7-2.2 1.7h-0.6zm8.7 3.8h2.7c2.8 0 4.7-1.8 4.7-4.5 0-2.6-2-4.5-4.7-4.5h-2.7v8.9zm1.8-1.6v-5.7h0.8c2 0 2.9 1.2 2.9 2.8 0 1.7-0.9 2.9-2.9 2.9h-0.8zm5.8 1.6h1.8l0.4-1h3.6l0.4 1h1.9l-4.1-9h-0.2l-3.9 9zm2.8-2.5 0.6-1.6c0.3-0.6 0.5-1.6 0.5-1.6 0 0 0.3 1 0.5 1.6l0.6 1.6h-2.3zm13.5 2.6h0.2v-9h-1.7v3.7c0 0.6 0.1 1.6 0.1 1.6 0 0-0.6-0.8-1.1-1.2l-4.5-4.2h-0.2v9h1.7v-3.7c0-0.6-0.1-1.6-0.1-1.6 0 0 0.6 0.8 1.1 1.2l4.5 4.2zm8 0h0.2l3.9-9h-1.8l-1.5 3.4c-0.3 0.8-0.7 2-0.7 2 0 0-0.4-1.3-0.7-2l-1.5-3.4h-2l4.1 9zm8.9 0c2.6 0 4.6-1.9 4.6-4.6 0-2.6-2-4.6-4.6-4.6-2.6 0-4.6 1.9-4.6 4.6 0 2.6 2 4.6 4.6 4.6m0-1.6c-1.6 0-2.7-1.3-2.7-2.9 0-1.7 1.1-2.9 2.7-2.9 1.6 0 2.7 1.3 2.7 2.9 0 1.7-1.1 2.9-2.7 2.9m10.3 1.6c2.6 0 4.6-1.9 4.6-4.6 0-2.6-2-4.6-4.6-4.6-2.6 0-4.6 1.9-4.6 4.6 0 2.6 2.1 4.6 4.6 4.6m0-1.6c-1.6 0-2.7-1.3-2.7-2.9 0-1.7 1.1-2.9 2.7-2.9 1.6 0 2.7 1.3 2.7 2.9 0 1.7-1.1 2.9-2.7 2.9m10.9-1.3c1.1-0.5 1.7-1.4 1.7-2.8 0-2.2-1.5-3.4-4-3.4h-2.5v8.9h1.8v-2.2h0.6c0.2 0 0.4 0 0.5 0l1.5 2.3h2.1l-1.9-2.8zm-2.9-1v-3.5h0.6c1.5 0 2.2 0.5 2.2 1.8 0 1.3-0.7 1.7-2.2 1.7h-0.6zm8.7 3.8h1.7l0.2-3.2c0-0.6 0.1-1.6 0.1-1.6 0 0 0.5 0.9 0.9 1.4l1.6 2.2h0.2l1.6-2.2c0.4-0.5 0.8-1.4 0.8-1.4 0 0 0 1 0.1 1.6l0.2 3.2h1.8l-0.7-9h-0.2l-3.1 4.2c-0.3 0.4-0.6 1-0.6 1 0 0-0.4-0.6-0.6-1l-3.1-4.2h-0.2l-0.7 9zm11 0h6.1v-1.6h-4.3v-1.3h3.6v-1.6h-3.6v-2.8h4.1v-1.6h-5.9v8.9zm14.9 0.1h0.2v-9h-1.7v3.7c0 0.6 0.1 1.6 0.1 1.6 0 0-0.6-0.8-1-1.2l-4.5-4.2h-0.2v9h1.7v-3.7c0-0.6-0.1-1.6-0.1-1.6 0 0 0.6 0.8 1.1 1.2l4.5 4.2zm4.7 0c1.7 0 3-0.9 3-2.6 0-1.5-0.9-2.2-2.4-2.9l-0.5-0.2c-0.8-0.3-1.1-0.6-1.1-1.1 0-0.4 0.3-0.8 0.9-0.8 0.5 0 0.9 0.2 1.2 0.8l1.4-0.9c-0.6-1.1-1.4-1.5-2.6-1.5-1.6 0-2.7 1-2.7 2.4 0 1.5 0.9 2.2 2.2 2.8l0.5 0.2c0.8 0.4 1.3 0.6 1.3 1.2 0 0.5-0.5 0.9-1.2 0.9-0.9 0-1.4-0.5-1.8-1.1l-1.5 0.9c0.5 1.1 1.6 1.9 3.3 1.9m4.4-0.1h6.1v-1.6h-4.3v-1.3h3.6v-1.6h-3.6v-2.8h4.1v-1.6h-5.9v8.9zm14.9 0.1H1017v-9h-1.7v3.7c0 0.6 0.1 1.6 0.1 1.6 0 0-0.6-0.8-1-1.2l-4.5-4.2h-0.2v9h1.7v-3.7c0-0.6-0.1-1.6-0.1-1.6 0 0 0.6 0.8 1.1 1.2l4.5 4.2z" fill="#5a595b"/>
    <g transform="matrix(0.81725104,0,0,0.81725104,-257.42413,466.55249)" fill="#fff">
      <defs>
        <rect x="382.3" y="29" width="16" height="12.5"/>
      </defs>
      <clipPath>
        <use height="1" width="1" y="0" x="0" overflow="visible"/>
      </clipPath>
      <path clip-path="url(#SVGID_6_)" d="m395.8 36.1 2.5 5.1c0.1 0.2 0 0.4-0.2 0.4h-15.5c-0.2 0-0.3-0.2-0.2-0.4l2.5-5.1c0-0.1 0.1-0.1 0.2-0.1h2.1c0.1 0 0.2 0 0.2 0.1 0.1 0.2 0.3 0.3 0.4 0.5 0.1 0.2 0.3 0.3 0.4 0.5h-2.5c-0.1 0-0.2 0.1-0.2 0.1l-1.6 3.4h13l-1.6-3.4c0-0.1-0.1-0.1-0.2-0.1h-2.5c0.1-0.2 0.3-0.3 0.4-0.5 0.1-0.2 0.3-0.3 0.4-0.5 0 0 0.1-0.1 0.2-0.1h2.1c0.1 0 0.2 0.1 0.2 0.1l0 0zm-1.9-3.5c0 2.8-2.3 3.3-3.4 5.9-0.1 0.2-0.4 0.2-0.5 0-1-2.4-2.9-3.1-3.3-5.2-0.4-2.1 1.1-4.2 3.2-4.4 2.2-0.2 4 1.5 4 3.6l0 0zm-1.7 0c0-1.1-0.9-1.9-1.9-1.9-1.1 0-1.9 0.9-1.9 1.9 0 1.1 0.9 1.9 1.9 1.9 1.1 0 1.9-0.9 1.9-1.9l0 0zm0 0" fill="#fff"/>
    </g>
    <path transform="matrix(0.81725104,0,0,0.81725104,-17.498955,484.57001)" d="m100.7 41c-0.2-0.2-0.4-0.2-0.6-0.2-0.3 0-0.5 0.1-0.7 0.3L98.3 42.1 98 41.9C97.4 41.6 96.5 41.1 95.5 40.1 94.6 39.2 94.1 38.3 93.7 37.6L93.5 37.3 94.6 36.2c0.4-0.4 0.4-0.9 0-1.3l-2-2c-0.2-0.2-0.4-0.2-0.6-0.2-0.3 0-0.5 0.1-0.7 0.3l-0.5 0.5 0 0.1c-0.2 0.2-0.3 0.5-0.5 0.8-0.1 0.3-0.2 0.5-0.2 0.8-0.3 2.2 0.7 4.2 3.5 6.9 3.2 3.2 5.9 3.5 6.7 3.5 0.1 0 0.2 0 0.2 0 0.3 0 0.5-0.1 0.8-0.2 0.3-0.1 0.6-0.3 0.8-0.4l0.1-0.1 0.5-0.5c0.4-0.4 0.4-0.9 0-1.3l-2-2zm0 0M67.9 539 67.9 539c0 0.3-0.1 0.6-0.2 0.8l-4.1-4.6 4.1-3.6c0.2 0.3 0.3 0.5 0.3 0.9v6.5zm-6.5-3 5.7-5c-0.2-0.1-0.5-0.2-0.8-0.2H56.5c-0.3 0-0.5 0.1-0.8 0.2l5.7 5zm1.6-0.3-1.3 1.2c-0.1 0.1-0.2 0.1-0.3 0.1-0.1 0-0.2 0-0.3-0.1l-1.3-1.2-4.2 4.7c0.3 0.2 0.5 0.3 0.9 0.3h9.8c0.3 0 0.6-0.1 0.9-0.3l-4.2-4.7zm-7.9-4.1c-0.2 0.3-0.3 0.5-0.3 0.9v6.5c0 0.3 0.1 0.6 0.2 0.8l4.1-4.6-4.1-3.6zm0 0M67 551H55.8c-0.5 0-1 0.4-1 0.9v11.2c0 0.5 0.4 0.9 1 0.9h11.1c0.5 0 1-0.4 1-0.9v-11.2c0-0.5-0.4-0.9-1-0.9l0 0zm-8.1 10.9h-2v-5.9h2v5.9zm-1-6.7h0c-0.7 0-1.1-0.5-1.1-1 0-0.6 0.4-1 1.1-1 0.7 0 1.1 0.4 1.1 1 0 0.6-0.4 1-1.1 1l0 0zm8.1 6.7h-2v-3.2c0-0.8-0.3-1.3-1-1.3-0.5 0-0.9 0.4-1 0.7-0.1 0.1-0.1 0.3-0.1 0.5v3.3h-2c0 0 0-5.4 0-5.9h2v0.8c0.3-0.4 0.7-1 1.8-1 1.3 0 2.3 0.8 2.3 2.7v3.4zm-4.1-5c0 0 0 0 0 0v0h0zm0 0" clip-path="url(#SVGID_12_-3)" fill="#fff"/>
    <g transform="matrix(0.81725104,0,0,0.81725104,-305.26634,548.01143)" fill="#fff">
      <defs>
        <rect x="440.8" y="31" width="16" height="13.6"/>
      </defs>
      <clipPath>
        <use height="1" width="1" y="0" x="0" overflow="visible"/>
      </clipPath>
      <path clip-path="url(#SVGID_2_-7-2)" d="M444.4 38.5V40.7c0 0 1.9 2.1 4.5 2.1 3.3 0 4.5-2.1 4.5-2.1v-2.4l-3.9 2.3c-0.3 0.2-0.6 0.2-0.9 0l-4.2-2.1zm0 0M449 35.8 449 35.8c-0.5 0-1-0.1-1.2-0.3l-4.7 1.6 5.6 2.8c0.3 0.1 0.6 0.1 0.9 0l6.5-3.8c0.3-0.2 0.5-0.5 0.5-0.9 0-0.4-0.2-0.7-0.5-0.8l-6.7-3.4c-0.3-0.1-0.6-0.1-0.9 0l-6.5 3.8c-0.3 0.2-0.5 0.5-0.5 0.9 0 0.4 0.2 0.7 0.5 0.8l0 3.4c-0.3 0.1-0.6 0.4-0.6 0.8 0 0.3 0.1 0.5 0.3 0.7-0.1 0.5-0.3 0.8-0.5 1.1-0.2 0.2-0.3 0.5-0.3 0.8 0 0.3 0.2 0.6 0.4 0.7l0.1 0.1c0.2 0.2 0.5 0.2 0.8 0.2 0.3-0.1 0.5-0.2 0.6-0.5 0.5-0.8 0.2-1.9 0.1-2.4 0.2-0.2 0.3-0.4 0.3-0.6 0-0.4-0.2-0.7-0.6-0.8l0-3.3 5.1-1.8c0-0.2 0.3-0.4 0.3-0.4 0 0.1 0 0.8 1.1 0.8 0.6 0 1.1-0.2 1.1-0.6 0-0.1 0-0.2 0-0.2 0.2 0.2 0.3 0.5 0.3 0.7 0 0.5-0.6 0.7-1.3 0.7l0 0zm0 0" fill="#fff"/>
    </g>
    <g transform="matrix(0.81725104,0,0,0.81725104,29.002502,569.33328)" fill="#fff">
      <defs>
        <rect x="31.6" y="29.3" width="16" height="16.8"/>
      </defs>
      <clipPath>
        <use height="1" width="1" y="0" x="0" overflow="visible"/>
      </clipPath>
      <path clip-path="url(#SVGID_8_)" d="M47.6 35.5 42.1 33.7c-0.2 1.7-1.6 3.1-3.4 3.1-1.9 0-3.4-1.5-3.4-3.4 0-0.6 0.2-1.2 0.6-1.7l-1.9-0.6-2.4 7.6 0 2 16-3.8v-1.3zm0 0" fill="#fff"/>
    </g>
    <path d="m60.7 598.6c1.1 0 2-0.9 2-2 0-1-0.6-1.9-1.6-1.4 0.2-0.5 0.5-1.1 0.9-1.5l-0.3-0.4c-0.6 0.5-0.9 1.2-1.1 1.9-0.7-0.6-1.9 0.4-1.9 1.4 0 1.1 0.9 2 2 2l0 0zm0 0M54.9 603.3 54.9 603.3v1.5l13.1-3.2v-1.4l-13.1 3.1zm0 0M54.9 605.5v1.5l13.1-3.2v-1.4l-13.1 3.1zm0 0" transform="translate(0,0.00448)" fill="#fff"/>
    <g transform="matrix(0.81725104,0,0,0.81725104,-161.71234,591.68902)" fill="#fff">
      <defs>
        <rect x="265.4" y="29.7" width="16" height="16"/>
      </defs>
      <clipPath>
        <use height="1" width="1" y="0" x="0" overflow="visible"/>
      </clipPath>
      <path clip-path="url(#SVGID_10_)" d="m273.5 29.7c-4.4 0-8 3.6-8 8 0 4.4 3.6 8 8 8 4.4 0 8-3.6 8-8 0-4.4-3.6-8-8-8l0 0zm0 14.4c-3.5 0-6.4-2.9-6.4-6.4 0-3.5 2.9-6.4 6.4-6.4 3.5 0 6.4 2.9 6.4 6.4 0 3.5-2.9 6.4-6.4 6.4l0 0zm0 0" fill="#fff"/>
    </g>
    <path d="m61.1 620.8c0-0.6-0.5-1-1-1-0.6 0-1 0.5-1 1 0 0.6 0.5-0.6 1-0.6 0.6 0 1 1.2 1 0.6l0 0zm0 0M64.5 620.8 64.5 620.8c0-0.6-0.5-1-1-1-0.6 0-1 0.5-1 1 0 0.6 0.5-0.6 1-0.6 0.6 0 1 1.2 1 0.6l0 0zm0 0M65 623.6c0 0.8-1.4 2.3-3.2 2.3-1.8 0-3.2-1.5-3.2-2.3 0-0.8 1.4 0.5 3.2 0.5 1.8 0 3.2-1.3 3.2-0.5l0 0zm0 0" transform="translate(0,0.00448)" fill="#fff"/>
    <g transform="matrix(0.81725104,0,0,0.81725104,-209.82972,614.73875)" fill="#fff">
      <defs>
        <rect x="323.9" y="29.8" width="16" height="16"/>
      </defs>
      <clipPath>
        <use height="1" width="1" y="0" x="0" overflow="visible"/>
      </clipPath>
      <path clip-path="url(#SVGID_6_-1)" d="m338.4 29.8h-4.5c-0.8 0-2 0.5-2.6 1.1l-7 7c-0.6 0.6-0.6 1.5 0 2.1l5.4 5.4c0.6 0.6 1.5 0.6 2.1 0l7-7c0.6-0.6 1.1-1.7 1.1-2.6v-4.5c0-0.8-0.7-1.5-1.5-1.5l0 0zm-2 5c-0.8 0-1.5-0.7-1.5-1.5 0-0.8 0.7-1.5 1.5-1.5 0.8 0 1.5 0.7 1.5 1.5 0 0.8-0.7 1.5-1.5 1.5l0 0zm0 0" fill="#fff"/>
    </g>
    <text xml:space="preserve" x="303" y="388.6" class="s2">
      <tspan x="303" y="388.6" rotate="0" class="s2">
        VAARDIGHEDEN & KENNIS
      </tspan>
    </text>
    <text xml:space="preserve" x="303" y="52.6" class="s2">
      <tspan x="303" y="52.6" rotate="0" class="s2">
        OPLEIDINGEN / CURSUSSEN
      </tspan>
    </text>
    <text y="52.6" x="613" xml:space="preserve" class="s2">
      <tspan rotate="0" y="52.6" x="613" class="s2">
        RELEVANTE WERKERVARING
      </tspan>
    </text>
    <text y="472.6" x="613" xml:space="preserve" class="s2">
      <tspan rotate="0" y="472.6" x="613" class="s2">
        OVERIGE WERKERVARING
      </tspan>
    </text>
    <rect y="420.1" x="303" height="6.5" width="255.8" transform="translate(0,0.00448)" fill="#33c1ef"/>
    <flowRoot transform="matrix(1.3578337,0,0,1.3578337,-97.342863,-195.70475)" xml:space="preserve" class="s4">
      <flowRegion>
        <rect y="459.7" x="295.1" height="6.5" width="15.1" class="s5"/>
      </flowRegion>
      <flowPara class="s6">
        junior
      </flowPara>
    </flowRoot>
    <flowRoot xml:space="preserve" transform="matrix(1.3578337,0,0,1.3578337,135.71675,-195.70475)" class="s4">
      <flowRegion>
        <rect width="17.7" height="6.2" x="295.1" y="459.7" class="s5"/>
      </flowRegion>
      <flowPara class="s6">
        senior
      </flowPara>
    </flowRoot>
    <flowRoot transform="matrix(1.3578337,0,0,1.3578337,17.371117,-195.70475)" xml:space="preserve" class="s4">
      <flowRegion>
        <rect y="459.7" x="295.1" height="6.5" width="19.7" class="s5"/>
      </flowRegion>
      <flowPara class="s6">
        medior
      </flowPara>
    </flowRoot>
    <rect width="255.8" height="6.5" x="303" y="465.1" transform="translate(0,0.00448)" fill="#33c1ef"/>
    <flowRoot xml:space="preserve" transform="matrix(1.3578337,0,0,1.3578337,-97.342863,-150.68744)" class="s4">
      <flowRegion>
        <rect width="15.1" height="6.5" x="295.1" y="459.7" class="s5"/>
      </flowRegion>
      <flowPara class="s6">
        junior
      </flowPara>
    </flowRoot>
    <flowRoot transform="matrix(1.3578337,0,0,1.3578337,135.71675,-150.68744)" xml:space="preserve" class="s4">
      <flowRegion>
        <rect y="459.7" x="295.1" height="6.2" width="17.7" class="s5"/>
      </flowRegion>
      <flowPara class="s6">
        senior
      </flowPara>
    </flowRoot>
    <flowRoot xml:space="preserve" transform="matrix(1.3578337,0,0,1.3578337,17.371117,-150.68744)" class="s4">
      <flowRegion>
        <rect width="19.7" height="6.5" x="295.1" y="459.7" class="s5"/>
      </flowRegion>
      <flowPara class="s6">
        medior
      </flowPara>
    </flowRoot>
    <rect y="510.1" x="303" height="6.5" width="255.8" transform="translate(0,0.00448)" fill="#33c1ef"/>
    <flowRoot transform="matrix(1.3578337,0,0,1.3578337,-97.342863,-105.67012)" xml:space="preserve" class="s4">
      <flowRegion>
        <rect y="459.7" x="295.1" height="6.5" width="15.1" class="s5"/>
      </flowRegion>
      <flowPara class="s6">
        junior
      </flowPara>
    </flowRoot>
    <flowRoot xml:space="preserve" transform="matrix(1.3578337,0,0,1.3578337,135.71675,-105.67012)" class="s4">
      <flowRegion>
        <rect width="17.7" height="6.2" x="295.1" y="459.7" class="s5"/>
      </flowRegion>
      <flowPara class="s6">
        senior
      </flowPara>
    </flowRoot>
    <flowRoot transform="matrix(1.3578337,0,0,1.3578337,17.371117,-105.67012)" xml:space="preserve" class="s4">
      <flowRegion>
        <rect y="459.7" x="295.1" height="6.5" width="19.7" class="s5"/>
      </flowRegion>
      <flowPara class="s6">
        medior
      </flowPara>
    </flowRoot>
    <flowRoot xml:space="preserve" transform="matrix(1.3578337,0,0,1.3578337,-97.342863,-60.652804)" class="s4">
      <flowRegion>
        <rect width="15.1" height="6.5" x="295.1" y="459.7" class="s5"/>
      </flowRegion>
      <flowPara class="s6">
        junior
      </flowPara>
    </flowRoot>
    <flowRoot transform="matrix(1.3578337,0,0,1.3578337,135.71675,-60.652804)" xml:space="preserve" class="s4">
      <flowRegion>
        <rect y="459.7" x="295.1" height="6.2" width="17.7" class="s5"/>
      </flowRegion>
      <flowPara class="s6">
        senior
      </flowPara>
    </flowRoot>
    <flowRoot xml:space="preserve" transform="matrix(1.3578337,0,0,1.3578337,17.371117,-60.652804)" class="s4">
      <flowRegion>
        <rect width="19.7" height="6.5" x="295.1" y="459.7" class="s5"/>
      </flowRegion>
      <flowPara class="s6">
        medior
      </flowPara>
    </flowRoot>
    <rect y="555.1" x="303" height="6.5" width="255.8" transform="translate(0,0.00448)" fill="#33c1ef"/>
    <rect y="600.2" x="303" height="6.5" width="255.8" transform="translate(0,0.00448)" fill="#33c1ef"/>
    <flowRoot transform="matrix(1.3578337,0,0,1.3578337,-97.342863,-15.635486)" xml:space="preserve" class="s4">
      <flowRegion>
        <rect y="459.7" x="295.1" height="6.5" width="15.1" class="s5"/>
      </flowRegion>
      <flowPara class="s6">
        junior
      </flowPara>
    </flowRoot>
    <flowRoot xml:space="preserve" transform="matrix(1.3578337,0,0,1.3578337,135.71675,-15.635486)" class="s4">
      <flowRegion>
        <rect width="17.7" height="6.2" x="295.1" y="459.7" class="s5"/>
      </flowRegion>
      <flowPara class="s6">
        senior
      </flowPara>
    </flowRoot>
    <flowRoot transform="matrix(1.3578337,0,0,1.3578337,17.371117,-15.635486)" xml:space="preserve" class="s4">
      <flowRegion>
        <rect y="459.7" x="295.1" height="6.5" width="19.7" class="s5"/>
      </flowRegion>
      <flowPara class="s6">
        medior
      </flowPara>
    </flowRoot>
    <rect width="255.8" height="6.5" x="303" y="645.2" transform="translate(0,0.00448)" fill="#33c1ef"/>
    <flowRoot xml:space="preserve" transform="matrix(1.3578337,0,0,1.3578337,-97.342863,29.38183)" class="s4">
      <flowRegion>
        <rect width="15.1" height="6.5" x="295.1" y="459.7" class="s5"/>
      </flowRegion>
      <flowPara class="s6">
        junior
      </flowPara>
    </flowRoot>
    <flowRoot transform="matrix(1.3578337,0,0,1.3578337,135.71675,29.38183)" xml:space="preserve" class="s4">
      <flowRegion>
        <rect y="459.7" x="295.1" height="6.2" width="17.7" class="s5"/>
      </flowRegion>
      <flowPara class="s6">
        senior
      </flowPara>
    </flowRoot>
    <flowRoot xml:space="preserve" transform="matrix(1.3578337,0,0,1.3578337,17.371117,29.38183)" class="s4">
      <flowRegion>
        <rect width="19.7" height="6.5" x="295.1" y="459.7" class="s5"/>
      </flowRegion>
      <flowPara class="s6">
        medior
      </flowPara>
    </flowRoot>
  </g>
  <text y="282.1" x="55" xml:space="preserve" class="s7">
    <tspan rotate="0" y="282.1" x="55" class="s7">
      <NAAM ACHTERNAAM>
    </tspan>
  </text>
  <flowRoot transform="translate(17.878675,52.771394)" xml:space="preserve" style="-inkscape-font-specification:Arial Bold;fill:#fff;font-family:Arial;font-size:10;font-weight:900;letter-spacing:0.2;line-height:125;text-align:justify;text-anchor:start;word-spacing:-1">
    <flowRegion>
      <rect y="255.3" x="37.1" height="167.5" width="197.7" class="s8"/>
    </flowRegion>
    <flowPara class="s8">
      Dat geheel vleesch zonder been is, gebruikt men om daar Osse-worst van te maaken; en het vleesch van de schouwders met de twee platte stukken, met het vet van de broek gebruikt men tot rolpens in plaats van ander vet. Het vleesch om in de rook te hangen de Paterstukken, de twee andere platte billen; en de twee beste ribben; en de spieren, die achter de beenen van de ribben inzitten, om dat daar door ligt verderf ontstaan kan. De Harsten laat men een dag of vyf in het zout leggen en men moet ze niet te groot laaten hakken en ieder een doet dit  in zyn huisgezin.
    </flowPara>
  </flowRoot>
  <text y="296.1" x="54.4" xml:space="preserve" class="s9">
    <tspan y="296.1" x="54.4" class="s10">
      <FUNTIE>
    </tspan>
  </text>
  <g transform="translate(-304.59116,546.28803)"/>
  <text xml:space="preserve" x="74.1" y="499.7" class="s11">
    <tspan x="74.1" y="499.7" class="s12">
      <locatie / woonplaats>
    </tspan>
  </text>
  <text xml:space="preserve" x="74.4" y="520.1" class="s11">
    <tspan x="74.4" y="520.1" class="s12">
      <telefoonnummer>
    </tspan>
  </text>
  <text xml:space="preserve" x="74.4" y="539.4" class="s11">
    <tspan x="74.4" y="539.4" class="s12">
      <email>
    </tspan>
  </text>
  <text xml:space="preserve" x="74" y="562.2" class="s11">
    <tspan x="74" y="562.2" class="s12">
      <linkedin shortlink>
    </tspan>
  </text>
  <text xml:space="preserve" x="74.1" y="581.7" class="s11">
    <tspan x="74.1" y="581.7" class="s12">
      <hoogst genoten opleiding>
    </tspan>
  </text>
  <text xml:space="preserve" x="74.5" y="605.4" class="s11">
    <tspan x="74.5" y="605.4" class="s12">
      <geboortedatum>
    </tspan>
  </text>
  <text xml:space="preserve" x="74" y="626.3" class="s11">
    <tspan x="74" y="626.3" class="s12">
      <hobby> [, <hobby>]
    </tspan>
  </text>
  <text xml:space="preserve" x="74.8" y="646.9" class="s11">
    <tspan x="74.8" y="646.9" class="s12">
      <tag> [, <tag>]
    </tspan>
  </text>
  <a transform="translate(0,-20)">
    <rect y="40.1" x="35" height="230" width="238" fill="#f4d9a5"/>
  </a>
  <text y="78.1" x="351.1" xml:space="preserve" class="s9">
    <tspan y="78.1" x="351.1" class="s10">
      <DIPLOMA / CERTIFICAAT>
    </tspan>
  </text>
  <text xml:space="preserve" x="303.3" y="78.1" class="s9">
    <tspan x="303.3" y="78.1" class="s10">
      <JAAR>
    </tspan>
  </text>
  <text xml:space="preserve" x="351.1" y="92.1" class="s9">
    <tspan x="351.1" y="92.1" class="s13">
      <Opleiding / Instituut>
    </tspan>
  </text>
  <text xml:space="preserve" x="351.1" y="124.1" class="s9">
    <tspan x="351.1" y="124.1" class="s10">
      <DIPLOMA / CERTIFICAAT>
    </tspan>
  </text>
  <text y="124.1" x="303.3" xml:space="preserve" class="s9">
    <tspan y="124.1" x="303.3" class="s10">
      <JAAR>
    </tspan>
  </text>
  <text y="138.1" x="351.1" xml:space="preserve" class="s9">
    <tspan y="138.1" x="351.1" class="s13">
      <Opleiding / Instituut>
    </tspan>
  </text>
  <text y="170.1" x="351.1" xml:space="preserve" class="s9">
    <tspan y="170.1" x="351.1" class="s10">
      <DIPLOMA / CERTIFICAAT>
    </tspan>
  </text>
  <text xml:space="preserve" x="303.3" y="170.1" class="s9">
    <tspan x="303.3" y="170.1" class="s10">
      <JAAR>
    </tspan>
  </text>
  <text xml:space="preserve" x="351.1" y="184.1" class="s9">
    <tspan x="351.1" y="184.1" class="s13">
      <Opleiding / Instituut>
    </tspan>
  </text>
  <text xml:space="preserve" x="351.1" y="216.1" class="s9">
    <tspan x="351.1" y="216.1" class="s10">
      <DIPLOMA / CERTIFICAAT>
    </tspan>
  </text>
  <text y="216.1" x="303.3" xml:space="preserve" class="s9">
    <tspan y="216.1" x="303.3" class="s10">
      <JAAR>
    </tspan>
  </text>
  <text y="230.1" x="351.1" xml:space="preserve" class="s9">
    <tspan y="230.1" x="351.1" class="s13">
      <Opleiding / Instituut>
    </tspan>
  </text>
  <text y="262.1" x="351.1" xml:space="preserve" class="s9">
    <tspan y="262.1" x="351.1" class="s10">
      <DIPLOMA / CERTIFICAAT>
    </tspan>
  </text>
  <text xml:space="preserve" x="303.3" y="262.1" class="s9">
    <tspan x="303.3" y="262.1" class="s10">
      <JAAR>
    </tspan>
  </text>
  <text xml:space="preserve" x="351.1" y="276.1" class="s9">
    <tspan x="351.1" y="276.1" class="s13">
      <Opleiding / Instituut>
    </tspan>
  </text>
  <text xml:space="preserve" x="351.1" y="308.1" class="s9">
    <tspan x="351.1" y="308.1" class="s10">
      <DIPLOMA / CERTIFICAAT>
    </tspan>
  </text>
  <text y="308.1" x="303.3" xml:space="preserve" class="s9">
    <tspan y="308.1" x="303.3" class="s10">
      <JAAR>
    </tspan>
  </text>
  <text y="322.1" x="351.1" xml:space="preserve" class="s9">
    <tspan y="322.1" x="351.1" class="s13">
      <Opleiding / Instituut>
    </tspan>
  </text>
  <text xml:space="preserve" x="302.6" y="446.6" style="-inkscape-font-specification:Arial Bold;fill:#fff;font-family:Arial;font-size:40;font-weight:900;letter-spacing:0.2;line-height:125;word-spacing:0">
    <tspan x="302.6" y="446.6" style="-inkscape-font-specification:Arial Bold;fill:#fff;font-family:Arial;font-size:6;font-weight:900;letter-spacing:0.2"/>
  </text>
  <flowRoot xml:space="preserve" class="s14">
    <flowRegion>
      <rect width="88.5" height="134.8" x="289.8" y="443.5" class="s15"/>
    </flowRegion>
  </flowRoot>
  <flowRoot xml:space="preserve" transform="translate(0,-3.99999)" class="s14">
    <flowRegion>
      <rect width="79.4" height="52.6" x="808.8" y="549.4" class="s15"/>
    </flowRegion>
  </flowRoot>
  <flowRoot transform="translate(0,59.00001)" xml:space="preserve" class="s14">
    <flowRegion>
      <rect y="549.4" x="808.8" height="52.6" width="79.4" class="s15"/>
    </flowRegion>
  </flowRoot>
  <flowRoot xml:space="preserve" transform="translate(0,122)" class="s14">
    <flowRegion>
      <rect width="79.4" height="52.6" x="808.8" y="549.4" class="s15"/>
    </flowRegion>
  </flowRoot>
  <text xml:space="preserve" x="303.1" y="416.1" class="s9">
    <tspan x="303.1" y="416.1" class="s10">
      VAARDIGHEID (KENNIS [, KENNIS])
    </tspan>
  </text>
  <rect y="420.1" x="303" height="6.5" width="124" fill="#fff"/>
  <text y="461.1" x="303.1" xml:space="preserve" class="s9">
    <tspan y="461.1" x="303.1" class="s10">
      VAARDIGHEID (KENNIS [, KENNIS])
    </tspan>
  </text>
  <rect width="124" height="6.5" x="303" y="465.1" fill="#fff"/>
  <text xml:space="preserve" x="303.1" y="506.1" class="s9">
    <tspan x="303.1" y="506.1" class="s10">
      VAARDIGHEID (KENNIS [, KENNIS])
    </tspan>
  </text>
  <rect y="510.1" x="303" height="6.5" width="124" fill="#fff"/>
  <text y="551.1" x="303.1" xml:space="preserve" class="s9">
    <tspan y="551.1" x="303.1" class="s10">
      VAARDIGHEID (KENNIS [, KENNIS])
    </tspan>
  </text>
  <rect width="124" height="6.5" x="303" y="555.1" fill="#fff"/>
  <text xml:space="preserve" x="303.1" y="596.2" class="s9">
    <tspan x="303.1" y="596.2" class="s10">
      VAARDIGHEID (KENNIS [, KENNIS])
    </tspan>
  </text>
  <rect y="600.2" x="303" height="6.5" width="124" fill="#fff"/>
  <text y="641.2" x="303.1" xml:space="preserve" class="s9">
    <tspan y="641.2" x="303.1" class="s10">
      VAARDIGHEID (KENNIS [, KENNIS])
    </tspan>
  </text>
  <rect width="124" height="6.5" x="303" y="645.2" fill="#fff"/>
  <text xml:space="preserve" x="997.6" y="78.1" class="s16">
    <tspan x="998" y="78.1" class="s17">
      01-2014 T/M HEDEN
    </tspan>
  </text>
  <text y="78.1" x="613" xml:space="preserve" class="s9">
    <tspan y="78.1" x="613" class="s10">
      <FUNCTIE>, <BEDRIJF>
    </tspan>
  </text>
  <text y="96.1" x="613" xml:space="preserve" class="s9">
    <tspan y="96.1" x="613" class="s10">
      SITUATIE
    </tspan>
  </text>
  <flowRoot transform="translate(-23.652892,-5.0069629)" xml:space="preserve" class="s18">
    <flowRegion>
      <rect y="91.6" x="708" height="102.1" width="312.3" class="s19"/>
    </flowRegion>
    <flowPara class="s8">
      Dat geheel vleesch zonder been is, gebruikt men om daar Osse-worst van te maaken; en het vleesch van de schouwders met de twee platte stukken, met het vet van de broek gebruikt men tot rolpens in plaats van ander vet. Het vleesch om in de rook te hangen de Paterstukken, de twee andere platte billen; en de twee beste ribben; en de spieren, die achter de beenen van de ribben inzitten, om dat daar door ligt verderf ontstaan kan. De Harsten laat men een dag of vyf in het zout leggen en men moet ze niet te groot laaten hakken en ieder een doet dit  in zyn huisgezin.
    </flowPara>
  </flowRoot>
  <text xml:space="preserve" x="613" y="207.1" class="s9">
    <tspan x="613" y="207.1" class="s10">
      TAKEN
    </tspan>
  </text>
  <flowRoot xml:space="preserve" transform="translate(-23.652892,106.01422)" class="s18">
    <flowRegion>
      <rect width="312.3" height="102.1" x="708" y="91.6" class="s19"/>
    </flowRegion>
    <flowPara class="s8">
      Dat geheel vleesch zonder been is, gebruikt men om daar Osse-worst van te maaken; en het vleesch van de schouwders met de twee platte stukken, met het vet van de broek gebruikt men tot rolpens in plaats van ander vet. Het vleesch om in de rook te hangen de Paterstukken, de twee andere platte billen; en de twee beste ribben; en de spieren, die achter de beenen van de ribben inzitten, om dat daar door ligt verderf ontstaan kan. De Harsten laat men een dag of vyf in het zout leggen en men moet ze niet te groot laaten hakken en ieder een doet dit  in zyn huisgezin.
    </flowPara>
  </flowRoot>
  <text y="318.1" x="613" xml:space="preserve" class="s9">
    <tspan y="318.1" x="613" class="s10">
      RESULTAAT
    </tspan>
  </text>
  <flowRoot transform="translate(-23.652892,216.99307)" xml:space="preserve" class="s18">
    <flowRegion>
      <rect y="91.6" x="708" height="102.1" width="312.3" class="s19"/>
    </flowRegion>
    <flowPara class="s8">
      Dat geheel vleesch zonder been is, gebruikt men om daar Osse-worst van te maaken; en het vleesch van de schouwders met de twee platte stukken, met het vet van de broek gebruikt men tot rolpens in plaats van ander vet. Het vleesch om in de rook te hangen de Paterstukken, de twee andere platte billen; en de twee beste ribben; en de spieren, die achter de beenen van de ribben inzitten, om dat daar door ligt verderf ontstaan kan. De Harsten laat men een dag of vyf in het zout leggen en men moet ze niet te groot laaten hakken en ieder een doet dit  in zyn huisgezin.
    </flowPara>
  </flowRoot>
  <text y="496.1" x="997.6" xml:space="preserve" class="s16">
    <tspan y="496.1" x="998" class="s17">
      01-2014 T/M HEDEN
    </tspan>
  </text>
  <text xml:space="preserve" x="613" y="496.1" class="s9">
    <tspan x="613" y="496.1" class="s10">
      <FUNCTIE>, <BEDRIJF>
    </tspan>
  </text>
  <flowRoot xml:space="preserve" transform="translate(-94.154845,410.99308)" class="s18">
    <flowRegion>
      <rect width="383.1" height="35.1" x="708" y="91.6" class="s19"/>
    </flowRegion>
    <flowPara class="s8">
      zout leggen en men moet ze niet.
      <flowSpan class="s19">
        Dat geheel vleesch zonder been is, gebruikt men om daar Osse-worst van te maaken; en het vleesch van de schouwders met de twee platte stukken  tot rolpens in plaats van ander vet. De Harsten laat men een dag of vyf in het 
      </flowSpan>
    </flowPara>
  </flowRoot>
  <text xml:space="preserve" x="997.6" y="559.1" class="s16">
    <tspan x="998" y="559.1" class="s17">
      01-2014 T/M HEDEN
    </tspan>
  </text>
  <text y="559.1" x="613" xml:space="preserve" class="s9">
    <tspan y="559.1" x="613" class="s10">
      <FUNCTIE>, <BEDRIJF>
    </tspan>
  </text>
  <flowRoot transform="translate(-94.154845,473.99308)" xml:space="preserve" class="s18">
    <flowRegion>
      <rect y="91.6" x="708" height="35.1" width="383.1" class="s19"/>
    </flowRegion>
    <flowPara class="s8">
      Dat geheel vleesch zonder been is, gebruikt men om daar Osse-worst van te maaken; en het vleesch van de schouwders met de twee platte stukken  tot rolpens in plaats van ander vet. De Harsten laat men een dag of vyf in het zout leggen en men moet ze niet.
    </flowPara>
  </flowRoot>
  <text y="622.1" x="997.6" xml:space="preserve" class="s16">
    <tspan y="622.1" x="998" class="s17">
      01-2014 T/M HEDEN
    </tspan>
  </text>
  <text xml:space="preserve" x="613" y="622.1" class="s9">
    <tspan x="613" y="622.1" class="s10">
      <FUNCTIE>, <BEDRIJF>
    </tspan>
  </text>
  <flowRoot xml:space="preserve" transform="translate(-94.154845,536.99307)" class="s18">
    <flowRegion>
      <rect width="383.1" height="35.1" x="708" y="91.6" class="s19"/>
    </flowRegion>
    <flowPara class="s8">
      Dat geheel vleesch zonder been is, gebruikt men om daar Osse-worst van te maaken; en het vleesch van de schouwders met de twee platte stukken  tot rolpens in plaats van ander vet. De Harsten laat men een dag of vyf in het zout leggen en men moet ze niet.
    </flowPara>
  </flowRoot>
</svg>
